<svg width="21" height="18" viewBox="0 0 21 18" fill="none" xmlns="http://www.w3.org/2000/svg">
<path d="M18.1934 6.00798L4.19345 0.227983C3.66372 0.00876957 3.08228 -0.0540727 2.51795 0.0468957C1.95362 0.147864 1.43004 0.408415 1.00919 0.797703C0.588336 1.18699 0.287838 1.68871 0.143269 2.24348C-0.00130066 2.79824 0.0161127 3.38281 0.193447 3.92798L1.73345 8.77798L0.153447 13.628C-0.0286814 14.1753 -0.0491403 14.7636 0.0945214 15.3223C0.238183 15.881 0.539873 16.3864 0.963447 16.778C1.50809 17.283 2.22073 17.5681 2.96345 17.578C3.35818 17.5777 3.74898 17.4996 4.11345 17.348L18.1634 11.568C18.7106 11.3404 19.1782 10.9559 19.507 10.4629C19.8359 9.96994 20.0114 9.3906 20.0114 8.79798C20.0114 8.20537 19.8359 7.62603 19.507 7.13305C19.1782 6.64007 18.7106 6.25555 18.1634 6.02798L18.1934 6.00798ZM3.38345 15.478C3.20705 15.5507 3.01351 15.5715 2.82569 15.5379C2.63786 15.5042 2.46359 15.4175 2.32345 15.288C2.19143 15.1618 2.09648 15.0019 2.04888 14.8257C2.00129 14.6494 2.00287 14.4634 2.05345 14.288L3.51345 9.77798H17.2434L3.38345 15.478ZM3.51345 7.77798L2.02345 3.30798C1.97286 3.13253 1.97129 2.94658 2.01888 2.7703C2.06648 2.59402 2.16143 2.43413 2.29345 2.30798C2.38755 2.20926 2.50086 2.13083 2.6264 2.07752C2.75194 2.02421 2.88706 1.99714 3.02345 1.99798C3.15749 1.99824 3.29012 2.02545 3.41345 2.07798L17.2434 7.77798H3.51345Z" fill="white"/>
</svg>
