<svg width="20" height="20" viewBox="0 0 20 20" fill="none" xmlns="http://www.w3.org/2000/svg">
<path d="M6.42 10.21C6.51344 10.3027 6.62426 10.376 6.7461 10.4258C6.86794 10.4755 6.9984 10.5008 7.13 10.5C7.26161 10.5008 7.39207 10.4755 7.51391 10.4258C7.63575 10.376 7.74656 10.3027 7.84 10.21L9.34 8.71C9.43373 8.61704 9.50813 8.50644 9.5589 8.38458C9.60966 8.26272 9.6358 8.13201 9.6358 8C9.6358 7.86799 9.60966 7.73728 9.5589 7.61542C9.50813 7.49356 9.43373 7.38296 9.34 7.29L7.84 5.79C7.74677 5.69676 7.63608 5.6228 7.51425 5.57234C7.39243 5.52188 7.26186 5.49591 7.13 5.49591C6.99815 5.49591 6.86758 5.52188 6.74575 5.57234C6.62393 5.6228 6.51324 5.69676 6.42 5.79C6.32677 5.88324 6.2528 5.99393 6.20234 6.11575C6.15188 6.23757 6.12591 6.36814 6.12591 6.5C6.12591 6.63186 6.15188 6.76243 6.20234 6.88425C6.2528 7.00607 6.32677 7.11676 6.42 7.21L7.21 8L6.42 8.79C6.32628 8.88296 6.25188 8.99356 6.20111 9.11542C6.15034 9.23728 6.12421 9.36799 6.12421 9.5C6.12421 9.63201 6.15034 9.76272 6.20111 9.88458C6.25188 10.0064 6.32628 10.117 6.42 10.21ZM12.36 12.21C11.6915 12.749 10.8587 13.0429 10 13.0429C9.14131 13.0429 8.30849 12.749 7.64 12.21C7.43579 12.0403 7.17251 11.9586 6.90808 11.983C6.64365 12.0074 6.39974 12.1358 6.23 12.34C6.06027 12.5442 5.9786 12.8075 6.00298 13.0719C6.02736 13.3364 6.15579 13.5803 6.36 13.75C7.38134 14.6026 8.66957 15.0696 10 15.0696C11.3304 15.0696 12.6187 14.6026 13.64 13.75C13.8442 13.5803 13.9726 13.3364 13.997 13.0719C14.0214 12.8075 13.9397 12.5442 13.77 12.34C13.686 12.2389 13.5828 12.1553 13.4665 12.0941C13.3501 12.0328 13.2229 11.9951 13.0919 11.983C12.8275 11.9586 12.5642 12.0403 12.36 12.21ZM13 7C12.8022 7 12.6089 7.05865 12.4444 7.16853C12.28 7.27841 12.1518 7.43459 12.0761 7.61732C12.0004 7.80004 11.9806 8.00111 12.0192 8.19509C12.0578 8.38907 12.153 8.56725 12.2929 8.70711C12.4328 8.84696 12.6109 8.9422 12.8049 8.98079C12.9989 9.01937 13.2 8.99957 13.3827 8.92388C13.5654 8.84819 13.7216 8.72002 13.8315 8.55557C13.9414 8.39112 14 8.19778 14 8C14 7.73478 13.8946 7.48043 13.7071 7.29289C13.5196 7.10536 13.2652 7 13 7ZM10 0C8.02219 0 6.08879 0.58649 4.4443 1.6853C2.79981 2.78412 1.51809 4.3459 0.761209 6.17317C0.00433284 8.00043 -0.193701 10.0111 0.192152 11.9509C0.578004 13.8907 1.53041 15.6725 2.92894 17.0711C4.32746 18.4696 6.10929 19.422 8.0491 19.8079C9.98891 20.1937 11.9996 19.9957 13.8268 19.2388C15.6541 18.4819 17.2159 17.2002 18.3147 15.5557C19.4135 13.9112 20 11.9778 20 10C20 8.68678 19.7413 7.38642 19.2388 6.17317C18.7363 4.95991 17.9997 3.85752 17.0711 2.92893C16.1425 2.00035 15.0401 1.26375 13.8268 0.761205C12.6136 0.258658 11.3132 0 10 0ZM10 18C8.41775 18 6.87104 17.5308 5.55544 16.6518C4.23985 15.7727 3.21447 14.5233 2.60897 13.0615C2.00347 11.5997 1.84504 9.99113 2.15372 8.43928C2.4624 6.88743 3.22433 5.46197 4.34315 4.34315C5.46197 3.22433 6.88743 2.4624 8.43928 2.15372C9.99113 1.84504 11.5997 2.00346 13.0615 2.60896C14.5233 3.21447 15.7727 4.23984 16.6518 5.55544C17.5308 6.87103 18 8.41775 18 10C18 12.1217 17.1572 14.1566 15.6569 15.6569C14.1566 17.1571 12.1217 18 10 18Z" fill="white"/>
</svg>
