<svg width="21" height="20" viewBox="0 0 21 20" fill="none" xmlns="http://www.w3.org/2000/svg">
<path d="M19.6399 10.9999C19.4955 10.8806 19.3206 10.8042 19.135 10.7795C18.9493 10.7547 18.7605 10.7826 18.5899 10.8599C17.5325 11.3438 16.3828 11.5928 15.2199 11.5899C13.0687 11.5873 11.0059 10.7344 9.48103 9.21701C7.9562 7.69967 7.09309 5.64102 7.07989 3.48991C7.08445 2.81574 7.16836 2.14445 7.32989 1.48991C7.36417 1.31545 7.35131 1.135 7.29265 0.967161C7.23398 0.799322 7.13163 0.650159 6.99613 0.535039C6.86064 0.419919 6.6969 0.343005 6.52179 0.312222C6.34668 0.281438 6.16652 0.297899 5.99989 0.359907C4.43222 1.06482 3.06946 2.15667 2.03965 3.53289C1.00984 4.90911 0.346771 6.52453 0.11274 8.22739C-0.12129 9.93025 0.0813968 11.6647 0.701761 13.2677C1.32213 14.8707 2.3398 16.2897 3.65919 17.3914C4.97858 18.4931 6.55637 19.2413 8.24434 19.5657C9.9323 19.8902 11.675 19.7802 13.3088 19.2461C14.9426 18.7121 16.4139 17.7715 17.5843 16.5127C18.7547 15.2539 19.586 13.7182 19.9999 12.0499C20.0503 11.8589 20.043 11.6572 19.979 11.4704C19.9149 11.2835 19.7969 11.1198 19.6399 10.9999ZM10.1399 17.6899C8.46165 17.6781 6.82809 17.1478 5.46288 16.1716C4.09767 15.1955 3.06756 13.8212 2.51357 12.237C1.95959 10.6528 1.90883 8.93609 2.36823 7.32191C2.82763 5.70773 3.77475 4.27501 5.07989 3.21991V3.48991C5.08254 6.17839 6.15171 8.756 8.05275 10.657C9.9538 12.5581 12.5314 13.6273 15.2199 13.6299C15.9258 13.6325 16.6299 13.5587 17.3199 13.4099C16.6298 14.7154 15.5964 15.8077 14.331 16.5691C13.0657 17.3304 11.6166 17.7317 10.1399 17.7299V17.6899Z" fill="white"/>
</svg>
